<svg width="33" height="33" viewBox="0 0 33 33" fill="none" xmlns="http://www.w3.org/2000/svg">
<path d="M31.9999 15.5834L32 15.586C32.0058 17.8482 31.4773 20.0799 30.4573 22.0992L30.4554 22.103C29.2449 24.5251 27.3839 26.5623 25.081 27.9865C22.778 29.4107 20.124 30.1656 17.4163 30.1667L17.414 30.1667C15.1518 30.1726 12.9201 29.644 10.9008 28.6241C10.6628 28.5039 10.3867 28.4837 10.1338 28.568L1.58114 31.4189L4.43201 22.8662C4.51633 22.6133 4.49614 22.3372 4.37593 22.0992C3.35598 20.0799 2.82743 17.8482 2.83333 15.586L2.83333 15.5837C2.83438 12.876 3.58928 10.222 5.01348 7.91902C6.43768 5.61605 8.47493 3.75508 10.897 2.54455L10.897 2.54456L10.9008 2.54265C12.9201 1.5227 15.1518 0.994151 17.414 1.00005H17.4166H18.3053C21.8708 1.20341 25.2372 2.71134 27.7629 5.23706C30.2887 7.76278 31.7966 11.1292 31.9999 14.6947L31.9999 15.5834Z" fill="#D9D9D9" fill-opacity="0.5" stroke="white" stroke-width="2" stroke-linecap="round" stroke-linejoin="round"/>
</svg>
