<svg width="35" height="31" viewBox="0 0 35 31" fill="none" xmlns="http://www.w3.org/2000/svg">
<g clip-path="url(#clip0_276_2)">
<path d="M31.5939 3.40577C32.3566 4.16811 32.962 5.07358 33.3747 6.06981C33.7875 7.06604 34 8.13384 34 9.21221C34 10.2906 33.7875 11.3584 33.3747 12.3546C32.962 13.3508 32.3569 14.256 31.5942 15.0183L29.8192 16.7933L17.4996 29.113L5.17989 16.7933L3.40504 15.0185C1.86512 13.4786 1 11.39 1 9.21221C1 7.03443 1.86512 4.94585 3.40504 3.40593C4.94496 1.86601 7.03354 1.0009 9.21131 1.0009C11.3891 1.0009 13.4777 1.86601 15.0176 3.40593L16.7924 5.18079C17.183 5.57131 17.8161 5.57131 18.2067 5.18079L19.9815 3.40593C20.7438 2.64323 21.6492 2.03804 22.6454 1.62525C23.6416 1.21246 24.7094 1 25.7878 1C26.8662 1 27.934 1.21246 28.9302 1.62525C29.9264 2.03804 30.8316 2.64307 31.5939 3.40577Z" fill="#FF0000" fill-opacity="0.5" stroke="#550000" stroke-width="2" stroke-linecap="round" stroke-linejoin="round"/>
</g>
<defs>
<clipPath id="clip0_276_2">
<rect width="35" height="31" fill="white"/>
</clipPath>
</defs>
</svg>
